<svg id="eye-slash" xmlns="http://www.w3.org/2000/svg" width="17" height="13.502" viewBox="0 0 17 13.502">
  <g id="Raggruppa_2566" data-name="Raggruppa 2566">
    <path id="Tracciato_3625" data-name="Tracciato 3625" d="M24.288,16.784a14.523,14.523,0,0,0,2.806-3.44S23.907,7.5,18.594,7.5a7.467,7.467,0,0,0-2.964.625l.818.819a6.316,6.316,0,0,1,2.146-.381,7.923,7.923,0,0,1,5.491,2.611,13.955,13.955,0,0,1,1.764,2.171c-.062.092-.13.194-.207.306a14.011,14.011,0,0,1-1.557,1.865c-.175.175-.358.348-.549.516Z" transform="translate(-10.094 -6.593)" fill="#abb1b1"/>
    <path id="Tracciato_3626" data-name="Tracciato 3626" d="M20.717,18.464a3.719,3.719,0,0,0-4.754-4.754l.874.874a2.656,2.656,0,0,1,3.006,3.006Zm-3.127,1.38.873.873a3.719,3.719,0,0,1-4.754-4.754l.874.874a2.656,2.656,0,0,0,3.006,3.006Z" transform="translate(-8.714 -10.463)" fill="#abb1b1"/>
    <path id="Tracciato_3627" data-name="Tracciato 3627" d="M3.559,9q-.287.255-.55.517a13.955,13.955,0,0,0-1.764,2.171L1.452,12A14.011,14.011,0,0,0,3.009,13.86,7.925,7.925,0,0,0,8.5,16.47a6.3,6.3,0,0,0,2.146-.382l.818.82a7.468,7.468,0,0,1-2.964.625c-5.312,0-8.5-5.844-8.5-5.844a14.467,14.467,0,0,1,2.806-3.44L3.558,9ZM14.5,18.44,1.749,5.69,2.5,4.938l12.75,12.75Z" transform="translate(0 -4.938)" fill="#abb1b1"/>
  </g>
</svg>
