<svg id="eye" xmlns="http://www.w3.org/2000/svg" width="17" height="11.687" viewBox="0 0 17 11.687">
  <g id="Raggruppa_2565" data-name="Raggruppa 2565">
    <g id="Raggruppa_2564" data-name="Raggruppa 2564" transform="translate(0 0)">
      <path id="Tracciato_3623" data-name="Tracciato 3623" d="M17,28.344S13.813,22.5,8.5,22.5,0,28.344,0,28.344s3.188,5.844,8.5,5.844S17,28.344,17,28.344Zm-15.754,0A13.954,13.954,0,0,1,3.01,26.173,7.917,7.917,0,0,1,8.5,23.562a7.923,7.923,0,0,1,5.491,2.611,13.954,13.954,0,0,1,1.764,2.171c-.062.092-.13.194-.207.306a14.012,14.012,0,0,1-1.557,1.865A7.925,7.925,0,0,1,8.5,33.125a7.923,7.923,0,0,1-5.491-2.611,13.955,13.955,0,0,1-1.764-2.171Z" transform="translate(0 -22.5)" fill="#abb1b1"/>
      <path id="Tracciato_3624" data-name="Tracciato 3624" d="M44.219,41.562a2.656,2.656,0,1,0,2.656,2.656A2.656,2.656,0,0,0,44.219,41.562ZM40.5,44.219a3.719,3.719,0,1,1,3.719,3.719A3.719,3.719,0,0,1,40.5,44.219Z" transform="translate(-35.719 -38.375)" fill="#abb1b1"/>
    </g>
  </g>
</svg>
