<svg id="Raggruppa_2569" data-name="Raggruppa 2569" xmlns="http://www.w3.org/2000/svg" width="25.427" height="9.548" viewBox="0 0 25.427 9.548">
  <path id="Tracciato_3636" data-name="Tracciato 3636" d="M6.357,16.586a3.178,3.178,0,1,1-3.178,3.178A3.178,3.178,0,0,1,6.357,16.586Zm4.172.869A4.768,4.768,0,0,0,1.654,18.97H.795a.795.795,0,1,0,0,1.589h.86a4.768,4.768,0,0,0,9.47-.795,1.589,1.589,0,1,1,3.178,0,4.768,4.768,0,0,0,9.47.795h.86a.795.795,0,1,0,0-1.589h-.86A4.768,4.768,0,0,0,14.9,17.456a3.181,3.181,0,0,0-4.37,0Zm11.72,2.309a3.178,3.178,0,1,1-3.178-3.178A3.178,3.178,0,0,1,22.248,19.765Z" transform="translate(0 -14.994)" fill="#fff"/>
</svg>
