<svg id="icona_admin" data-name="icona admin" xmlns="http://www.w3.org/2000/svg" width="14.972" height="14.973" viewBox="0 0 14.972 14.973">
  <path id="Unione_2" data-name="Unione 2" d="M13.725,14.349a6.229,6.229,0,0,0-1.242-4.016,4.6,4.6,0,0,0-3.749-1.6H6.239a4.6,4.6,0,0,0-3.749,1.6,6.229,6.229,0,0,0-1.242,4.016.624.624,0,1,1-1.248,0A7.449,7.449,0,0,1,1.528,9.54a5.513,5.513,0,0,1,3.1-1.879,4.367,4.367,0,1,1,5.727,0,5.513,5.513,0,0,1,3.1,1.879,7.449,7.449,0,0,1,1.528,4.809.624.624,0,0,1-1.248,0ZM4.367,4.367A3.119,3.119,0,1,0,7.486,1.248,3.122,3.122,0,0,0,4.367,4.367Z" fill="#fff"/>
</svg>
