<svg id="icona_dashboard" data-name="icona dashboard" xmlns="http://www.w3.org/2000/svg" width="16.737" height="16.669" viewBox="0 0 16.737 16.669">
  <path id="Unione_3" data-name="Unione 3" d="M-19.552-122.147a1.323,1.323,0,0,1-1.393-1.236v-6.706a1.538,1.538,0,0,1,1.393-1.483h5a1.237,1.237,0,0,1,.913.48,1.6,1.6,0,0,1,.375,1v6.706a1.222,1.222,0,0,1-1.288,1.236Zm-.257-7.942v6.706c0,.1.139.169.257.169h5c.066,0,.152-.018.152-.169v-6.706c0-.112-.116-.2-.271-.208h-4.883C-19.672-130.3-19.809-130.186-19.809-130.089Zm-8.775,7.8A1.292,1.292,0,0,1-30-123.46v-1.976a1.41,1.41,0,0,1,1.416-1.329h5a1.253,1.253,0,0,1,1.2,1.329v1.976a1.1,1.1,0,0,1-1.2,1.174Zm-.28-3.15v1.976a.332.332,0,0,0,.28.247h5c.018,0,.06,0,.06-.247v-1.976a.3.3,0,0,0-.221-.263h-4.841A.347.347,0,0,0-28.864-125.437Zm.241-2.283A1.369,1.369,0,0,1-30-129.042v-8.412a1.405,1.405,0,0,1,1.377-1.362h5a1.3,1.3,0,0,1,1.235,1.362v8.412a1.253,1.253,0,0,1-1.235,1.322Zm-.241-9.734v8.412c0,.105.13.186.241.186h5c.046,0,.1,0,.1-.186v-8.412a.157.157,0,0,0-.052-.111.161.161,0,0,0-.124-.047l-.022,0h-4.9C-28.739-137.61-28.864-137.551-28.864-137.454Zm9.312,5a1.357,1.357,0,0,1-1.393-1.277v-3.721a1.432,1.432,0,0,1,1.393-1.362h5a1.359,1.359,0,0,1,1.288,1.362v3.721a1.269,1.269,0,0,1-1.288,1.277Zm-.257-5v3.721c0,.092.149.141.257.141h5c.128,0,.152-.05.152-.141v-3.721a.135.135,0,0,0-.049-.107.277.277,0,0,0-.205-.049h-4.9C-19.673-137.61-19.809-137.543-19.809-137.454Z" transform="translate(30 138.816)" fill="#fff"/>
</svg>
