<svg id="icona_cerca" data-name="icona cerca" xmlns="http://www.w3.org/2000/svg" width="16.168" height="16.733" viewBox="0 0 16.168 16.733">
  <path id="Unione_15" data-name="Unione 15" d="M-1609.484-1478.557l-3.528-3.522a7.012,7.012,0,0,1-3.9,1.179,7.056,7.056,0,0,1-7.048-7.049,7.058,7.058,0,0,1,7.048-7.051,7.06,7.06,0,0,1,7.052,7.051,7.017,7.017,0,0,1-1.67,4.551l3.448,3.44a.984.984,0,0,1,.291.7.987.987,0,0,1-.291.7.991.991,0,0,1-.7.29A.99.99,0,0,1-1609.484-1478.557Zm-12.461-9.392a5.038,5.038,0,0,0,5.032,5.034,5.04,5.04,0,0,0,5.036-5.034,5.041,5.041,0,0,0-5.036-5.035A5.039,5.039,0,0,0-1621.945-1487.948Z" transform="translate(1623.961 1495)" fill="#98a0a0"/>
</svg>
